<svg width="207" height="297" viewBox="0 0 207 297" fill="none" xmlns="http://www.w3.org/2000/svg">
<path d="M203.5 64L100.571 6.33013" stroke="black" stroke-width="10"/>
<path d="M3.5 64.5L105.858 6.22965" stroke="black" stroke-width="10"/>
<path d="M42.4404 136.252V178H28.3779V71.3594H67.709C79.3789 71.3594 88.5098 74.3379 95.1016 80.2949C101.742 86.252 105.062 94.1377 105.062 103.952C105.062 114.304 101.815 122.287 95.3213 127.902C88.876 133.469 79.623 136.252 67.5625 136.252H42.4404ZM42.4404 124.753H67.709C75.2285 124.753 80.9902 122.995 84.9941 119.479C88.998 115.915 91 110.788 91 104.099C91 97.751 88.998 92.6729 84.9941 88.8643C80.9902 85.0557 75.4971 83.0781 68.5146 82.9316H42.4404V124.753ZM137.143 166.501H187.68V178H123.007V71.3594H137.143V166.501Z" fill="black"/>
<path d="M41.16 243L33.4 238.52V231.32L39.08 228.04L33.4 224.76V208.36L42.68 203H68.2V205.72L60.92 209.96L65.8 212.84V223.88L56.52 229.24H41.16V236.04H58.92L68.2 241.4V254.04L58.92 259.4H41.08L31.8 254.04V249.08L39.56 244.6V252.6H60.44V243H41.16ZM41.16 209.8V222.44H58.04V209.8H41.16ZM83.0956 259L90.0556 241.16L74.6156 203H82.3756L93.7356 231.48H93.8956L105.176 203H112.936L90.6956 259H83.0956ZM174.74 207.96V243H166.98V209.56H151.7V243H143.94V209.56H128.66V243H120.9V202.6H126.74L128.66 205.88L134.34 202.6H142.42L149.86 206.92L157.38 202.6H165.46L174.74 207.96Z" fill="black"/>
<line x1="6" y1="297" x2="6.00001" y2="60" stroke="black" stroke-width="10"/>
<line x1="2" y1="292" x2="206" y2="292" stroke="black" stroke-width="10"/>
<line x1="201" y1="297" x2="201" y2="60" stroke="black" stroke-width="10"/>
</svg>
