<svg height="25" width="28" viewBox="0 0 512 512" xmlns="http://www.w3.org/2000/svg"><path d="M256.18 189a66.8 66.8 0 1 0 66.8 66.8 66.87 66.87 0 0 0-66.8-66.8Zm0 110.92a44.13 44.13 0 1 1 44.12-44.12 44.17 44.17 0 0 1-44.12 44.08Z" fill="#000000" class="fill-262626"></path><path d="M429.37 202.17H409.5l-6.93-16.73 14.05-14.05a33.47 33.47 0 0 0 0-47.29l-28.49-28.5a33.45 33.45 0 0 0-47.29 0l-14.06 14.06-16.72-6.93V82.86a33.48 33.48 0 0 0-33.44-33.44h-40.3a33.48 33.48 0 0 0-33.44 33.44v19.87l-16.73 6.93L172.1 95.6a33.45 33.45 0 0 0-47.29 0l-28.49 28.5a33.47 33.47 0 0 0 0 47.29l14.05 14.05-6.93 16.73H83.57a33.48 33.48 0 0 0-33.44 33.44v40.3a33.48 33.48 0 0 0 33.44 33.44h19.87l6.93 16.72-14.05 14.06a33.47 33.47 0 0 0 0 47.29l28.49 28.49a33.45 33.45 0 0 0 47.29 0l14.05-14.05 16.73 6.92v19.88a33.48 33.48 0 0 0 33.44 33.44h40.3a33.48 33.48 0 0 0 33.44-33.44v-19.88l16.72-6.92 14.06 14.05a33.45 33.45 0 0 0 47.29 0l28.49-28.49a33.47 33.47 0 0 0 0-47.29l-14.05-14.06 6.93-16.72h19.87a33.48 33.48 0 0 0 33.44-33.44v-40.3a33.48 33.48 0 0 0-33.44-33.44Zm10.76 73.74a10.78 10.78 0 0 1-10.76 10.76h-27.45a11.34 11.34 0 0 0-10.48 7l-12.72 30.72a11.34 11.34 0 0 0 2.45 12.36l19.42 19.41a10.79 10.79 0 0 1 0 15.22l-28.5 28.5a10.76 10.76 0 0 1-15.22 0l-19.41-19.41A11.34 11.34 0 0 0 325.1 378l-30.72 12.72a11.34 11.34 0 0 0-7 10.48v27.45a10.78 10.78 0 0 1-10.76 10.76h-40.3a10.78 10.78 0 0 1-10.76-10.76v-27.44a11.34 11.34 0 0 0-7-10.48L187.83 378a11.13 11.13 0 0 0-4.33-.87 11.32 11.32 0 0 0-8 3.32l-19.42 19.42a10.74 10.74 0 0 1-15.21 0l-28.5-28.49a10.77 10.77 0 0 1 0-15.22l19.41-19.41a11.34 11.34 0 0 0 2.46-12.36l-12.73-30.72a11.33 11.33 0 0 0-10.47-7H83.57a10.78 10.78 0 0 1-10.77-10.76v-40.3a10.77 10.77 0 0 1 10.77-10.76H111a11.34 11.34 0 0 0 10.47-7l12.73-30.73a11.32 11.32 0 0 0-2.46-12.35l-19.41-19.42a10.77 10.77 0 0 1 0-15.22l28.5-28.49a10.76 10.76 0 0 1 15.21 0l19.42 19.41a11.34 11.34 0 0 0 12.35 2.46l30.73-12.73a11.33 11.33 0 0 0 7-10.47V82.86a10.78 10.78 0 0 1 10.76-10.77h40.3a10.78 10.78 0 0 1 10.76 10.77v27.45a11.33 11.33 0 0 0 7 10.47l30.72 12.73a11.34 11.34 0 0 0 12.36-2.46l19.41-19.41a10.77 10.77 0 0 1 15.22 0l28.5 28.49a10.79 10.79 0 0 1 0 15.22l-19.42 19.42a11.32 11.32 0 0 0-2.45 12.35l12.72 30.73a11.36 11.36 0 0 0 10.48 7h27.45a10.77 10.77 0 0 1 10.76 10.76Z" fill="#000000" class="fill-262626"></path></svg>